<mxfile host="app.diagrams.net" agent="Mozilla/5.0 (X11; Linux x86_64) AppleWebKit/537.36 (KHTML, like Gecko) Chrome/138.0.0.0 Safari/537.36" version="28.0.7">
  <diagram name="Strona-1" id="6zMICVvdaX3lOHDVKsLJ">
    <mxGraphModel dx="1425" dy="787" grid="1" gridSize="10" guides="1" tooltips="1" connect="1" arrows="1" fold="1" page="1" pageScale="1" pageWidth="827" pageHeight="1169" math="0" shadow="0">
      <root>
        <mxCell id="0" />
        <mxCell id="1" parent="0" />
        <mxCell id="HmwWxU6DF3xo-zbIQPLF-1" value="" style="rounded=0;whiteSpace=wrap;html=1;rotation=-45;fillColor=#B3B3B3;" vertex="1" parent="1">
          <mxGeometry x="130" y="340" width="160" height="20" as="geometry" />
        </mxCell>
        <mxCell id="HmwWxU6DF3xo-zbIQPLF-2" value="" style="rounded=0;whiteSpace=wrap;html=1;fillColor=#B3B3B3;" vertex="1" parent="1">
          <mxGeometry x="320" y="260" width="160" height="20" as="geometry" />
        </mxCell>
        <mxCell id="HmwWxU6DF3xo-zbIQPLF-3" value="" style="rounded=0;whiteSpace=wrap;html=1;fillColor=#B3B3B3;" vertex="1" parent="1">
          <mxGeometry x="90" y="460" width="80" height="40" as="geometry" />
        </mxCell>
        <object label="" manipulator_func="flex_arm" id="HmwWxU6DF3xo-zbIQPLF-4">
          <mxCell style="ellipse;whiteSpace=wrap;html=1;aspect=fixed;fillColor=#F7A623;" vertex="1" parent="1">
            <mxGeometry x="110" y="410" width="40" height="40" as="geometry" />
          </mxCell>
        </object>
        <mxCell id="HmwWxU6DF3xo-zbIQPLF-7" value="" style="rounded=0;whiteSpace=wrap;html=1;rotation=-45;fillColor=#B3B3B3;" vertex="1" parent="1">
          <mxGeometry x="520" y="290" width="50" height="30" as="geometry" />
        </mxCell>
        <mxCell id="HmwWxU6DF3xo-zbIQPLF-8" value="" style="rounded=0;whiteSpace=wrap;html=1;rotation=30;fillColor=#B3B3B3;" vertex="1" parent="1">
          <mxGeometry x="600" y="350" width="60" height="10" as="geometry" />
        </mxCell>
        <mxCell id="HmwWxU6DF3xo-zbIQPLF-9" value="" style="rounded=0;whiteSpace=wrap;html=1;rotation=60;fillColor=#B3B3B3;" vertex="1" parent="1">
          <mxGeometry x="570.0018700141846" y="384.004200484521" width="60" height="10" as="geometry" />
        </mxCell>
        <object label="" manipulator_func="flex_forearm" id="HmwWxU6DF3xo-zbIQPLF-12">
          <mxCell style="ellipse;whiteSpace=wrap;html=1;aspect=fixed;fillColor=#F7A623;" vertex="1" parent="1">
            <mxGeometry x="270" y="250" width="40" height="40" as="geometry" />
          </mxCell>
        </object>
        <object label="" manipulator_func="flex_gripper" id="HmwWxU6DF3xo-zbIQPLF-13">
          <mxCell style="ellipse;whiteSpace=wrap;html=1;aspect=fixed;fillColor=#F7A623;" vertex="1" parent="1">
            <mxGeometry x="490" y="250" width="40" height="40" as="geometry" />
          </mxCell>
        </object>
        <object label="" manipulator_func="grip" id="HmwWxU6DF3xo-zbIQPLF-14">
          <mxCell style="ellipse;whiteSpace=wrap;html=1;aspect=fixed;fillColor=#F7A623;" vertex="1" parent="1">
            <mxGeometry x="560" y="320" width="40" height="40" as="geometry" />
          </mxCell>
        </object>
        <object label="" manipulator_func="rotate_turret" id="HmwWxU6DF3xo-zbIQPLF-16">
          <mxCell style="html=1;shadow=0;dashed=0;align=center;verticalAlign=middle;shape=mxgraph.arrows2.bendDoubleArrow;dy=8.19;dx=41.35;arrowHead=29.43;rounded=1;rotation=-135;fillColor=#F7A623;" vertex="1" parent="1">
            <mxGeometry x="90" y="470" width="80" height="80" as="geometry" />
          </mxCell>
        </object>
        <mxCell id="HmwWxU6DF3xo-zbIQPLF-19" style="edgeStyle=orthogonalEdgeStyle;rounded=0;orthogonalLoop=1;jettySize=auto;html=1;exitX=0;exitY=0;exitDx=23.384934;exitDy=23.384934;exitPerimeter=0;entryX=0;entryY=0.5;entryDx=0;entryDy=0;curved=1;endArrow=open;endFill=0;dashed=1;dashPattern=8 8;" edge="1" parent="1" source="HmwWxU6DF3xo-zbIQPLF-17" target="HmwWxU6DF3xo-zbIQPLF-7">
          <mxGeometry relative="1" as="geometry" />
        </mxCell>
        <object label="" id="HmwWxU6DF3xo-zbIQPLF-17">
          <mxCell style="html=1;shadow=0;dashed=0;align=center;verticalAlign=middle;shape=mxgraph.arrows2.bendDoubleArrow;dy=8.19;dx=41.35;arrowHead=29.43;rounded=1;rotation=-135;fillColor=#F7A623;" vertex="1" parent="1">
            <mxGeometry x="399.9985424949238" y="359.9985424949238" width="80" height="80" as="geometry" />
          </mxCell>
        </object>
      </root>
    </mxGraphModel>
  </diagram>
</mxfile>
